<svg xmlns="http://www.w3.org/2000/svg" version="1.0" width="641.000000pt" height="79.000000pt" viewBox="0 0 641.000000 79.000000" preserveAspectRatio="xMidYMid meet">
<g transform="translate(0.000000,79.000000) scale(0.100000,-0.100000)" fill="#ffffff" stroke="none">
<path d="M1773 766 c-152 -71 -179 -302 -45 -393 18 -12 68 -33 111 -48 116 -38 152 -89 95 -134 -46 -36 -135 -23 -201 29 -14 11 -30 20 -34 20 -5 0 -27 -36 -49 -80 l-40 -80 23 -14 c76 -50 119 -61 242 -61 116 0 122 1 175 31 77 43 113 103 118 194 8 144 -51 215 -219 264 -71 21 -104 53 -90 89 17 44 97 53 158 17 19 -11 38 -20 42 -20 4 0 25 34 47 75 45 87 46 83 -55 115 -92 29 -210 27 -278 -4z"/>
<path d="M5175 776 c-117 -38 -198 -109 -248 -214 -29 -61 -32 -75 -32 -167 0 -92 3 -106 32 -167 40 -85 106 -151 191 -191 64 -31 72 -32 192 -32 120 0 128 1 192 32 85 40 151 106 191 191 29 61 32 75 32 167 0 92 -3 106 -32 167 -40 85 -106 151 -191 191 -61 29 -77 32 -177 34 -71 2 -124 -2 -150 -11z m234 -205 c80 -41 126 -141 102 -223 -61 -204 -346 -204 -401 1 -25 93 38 208 130 238 47 16 120 9 169 -16z"/>
<path d="M6013 766 c-152 -71 -179 -302 -45 -393 18 -12 68 -33 111 -48 116 -38 152 -89 95 -134 -46 -36 -135 -23 -201 29 -14 11 -30 20 -34 20 -5 0 -27 -36 -49 -80 l-40 -80 23 -14 c76 -50 119 -61 242 -61 116 0 122 1 175 31 77 43 113 103 118 194 8 144 -51 215 -219 264 -71 21 -104 53 -90 89 17 44 97 53 158 17 19 -11 38 -20 42 -20 4 0 25 34 47 75 45 87 46 83 -55 115 -92 29 -210 27 -278 -4z"/>
<path d="M3 503 c6 -317 12 -351 86 -424 33 -34 61 -51 100 -63 71 -21 220 -21 290 0 72 21 134 79 162 152 21 53 23 78 27 330 l4 272 -105 0 -106 0 -3 -265 -3 -265 -31 -31 c-27 -26 -40 -31 -82 -32 -32 -1 -59 6 -77 17 -50 33 -55 63 -55 331 l0 245 -106 0 -106 0 5 -267z" style="&#10;"/>
<path d="M785 751 c3 -11 73 -178 154 -373 l149 -353 84 -3 84 -3 154 367 c85 201 157 370 158 375 2 6 -42 9 -108 7 l-112 -3 -88 -219 -87 -219 -88 221 -88 222 -109 0 c-103 0 -109 -1 -103 -19z" style="&#10;"/>
<path d="M2250 685 l0 -85 80 0 80 0 0 -290 0 -290 105 0 105 0 0 290 0 290 80 0 80 0 0 85 0 85 -265 0 -265 0 0 -85z"/>
<path d="M2883 503 c6 -317 12 -351 86 -424 33 -34 61 -51 100 -63 71 -21 220 -21 290 0 72 21 134 79 162 152 21 53 23 78 27 330 l4 272 -105 0 -106 0 -3 -265 -3 -265 -31 -31 c-27 -26 -40 -31 -82 -32 -32 -1 -59 6 -77 17 -50 33 -55 63 -55 331 l0 245 -106 0 -106 0 5 -267z"/>
<path d="M3730 395 l0 -376 203 3 c190 3 205 4 247 27 105 56 169 130 202 233 56 183 -24 365 -202 459 -42 23 -57 24 -247 27 l-203 3 0 -376z m370 171 c55 -36 84 -96 84 -171 1 -116 -68 -192 -182 -202 l-62 -6 0 208 0 208 61 -6 c41 -4 73 -13 99 -31z"/>
<path d="M4540 395 l0 -375 105 0 105 0 0 375 0 375 -105 0 -105 0 0 -375z"/>
</g>
</svg>